<?xml version="1.0" encoding="UTF-8"?>
<!DOCTYPE svg PUBLIC "-//W3C//DTD SVG 1.1//EN" "http://www.w3.org/Graphics/SVG/1.1/DTD/svg11.dtd">
<svg xmlns="http://www.w3.org/2000/svg" version="1.1" viewBox="0 0 73 73" stroke="none">
	<rect width="100%" height="100%" fill="#ffffff"/>
	<path d="M20,20h7v1h-7z M28,20h3v1h-3z M32,20h1v1h-1z M36,20h1v2h-1z M39,20h1v1h-1z M42,20h2v3h-2z M44,20h1v1h-1z M46,20h7v1h-7z M20,21h1v6h-1z M26,21h1v6h-1z M28,21h1v1h-1z M31,21h1v5h-1z M34,21h1v2h-1z M38,21h1v1h-1z M40,21h2v1h-2z M46,21h1v6h-1z M52,21h1v6h-1z M22,22h3v3h-3z M29,22h1v4h-1z M30,22h1v1h-1z M33,22h1v1h-1z M44,22h1v9h-1z M48,22h3v3h-3z M28,23h1v1h-1z M35,23h1v1h-1z M39,23h4v1h-4z M30,24h1v1h-1z M33,24h1v1h-1z M36,24h1v4h-1z M37,24h1v1h-1z M41,24h1v1h-1z M43,24h1v1h-1z M34,25h1v4h-1z M35,25h1v1h-1z M38,25h1v3h-1z M39,25h1v1h-1z M42,25h1v2h-1z M21,26h5v1h-5z M28,26h1v2h-1z M30,26h1v1h-1z M32,26h1v1h-1z M40,26h1v1h-1z M47,26h5v1h-5z M31,27h1v3h-1z M35,27h1v2h-1z M37,27h1v2h-1z M43,27h1v4h-1z M20,28h1v3h-1z M22,28h1v4h-1z M23,28h1v1h-1z M25,28h3v1h-3z M30,28h1v1h-1z M40,28h3v1h-3z M46,28h1v2h-1z M49,28h1v5h-1z M51,28h2v1h-2z M21,29h1v4h-1z M25,29h1v1h-1z M27,29h2v3h-2z M33,29h1v2h-1z M36,29h1v1h-1z M39,29h1v1h-1z M45,29h1v2h-1z M47,29h1v3h-1z M50,29h1v1h-1z M52,29h1v3h-1z M24,30h1v1h-1z M26,30h1v1h-1z M29,30h2v1h-2z M32,30h1v6h-1z M37,30h2v1h-2z M41,30h2v1h-2z M48,30h1v1h-1z M25,31h1v1h-1z M30,31h2v2h-2z M35,31h2v1h-2z M38,31h2v1h-2z M42,31h1v2h-1z M46,31h1v1h-1z M51,31h1v1h-1z M23,32h1v1h-1z M26,32h1v1h-1z M28,32h1v3h-1z M34,32h1v7h-1z M35,32h1v1h-1z M41,32h1v5h-1z M45,32h1v1h-1z M48,32h1v1h-1z M20,33h1v1h-1z M25,33h1v1h-1z M29,33h1v3h-1z M31,33h1v2h-1z M33,33h1v2h-1z M37,33h2v1h-2z M50,33h1v4h-1z M51,33h1v1h-1z M23,34h1v1h-1z M26,34h2v1h-2z M30,34h1v3h-1z M36,34h1v3h-1z M39,34h1v1h-1z M44,34h2v1h-2z M48,34h1v6h-1z M22,35h1v2h-1z M25,35h1v3h-1z M40,35h1v1h-1z M45,35h1v1h-1z M49,35h1v3h-1z M26,36h3v1h-3z M35,36h1v6h-1z M39,36h1v1h-1z M43,36h2v1h-2z M46,36h1v2h-1z M21,37h1v2h-1z M24,37h1v1h-1z M31,37h3v1h-3z M38,37h1v2h-1z M43,37h1v1h-1z M52,37h1v1h-1z M20,38h1v2h-1z M22,38h1v1h-1z M26,38h6v1h-6z M36,38h1v5h-1z M37,38h1v2h-1z M42,38h1v1h-1z M44,38h2v2h-2z M50,38h2v1h-2z M23,39h1v1h-1z M25,39h1v2h-1z M27,39h3v1h-3z M32,39h1v1h-1z M39,39h2v1h-2z M47,39h1v1h-1z M51,39h2v1h-2z M21,40h2v1h-2z M26,40h2v1h-2z M30,40h1v4h-1z M38,40h2v1h-2z M43,40h1v3h-1z M49,40h2v1h-2z M20,41h1v1h-1z M22,41h2v1h-2z M32,41h1v2h-1z M34,41h1v3h-1z M40,41h1v1h-1z M42,41h1v1h-1z M46,41h1v1h-1z M52,41h1v4h-1z M25,42h4v1h-4z M31,42h1v2h-1z M33,42h1v1h-1z M44,42h1v10h-1z M47,42h1v3h-1z M49,42h1v4h-1z M51,42h1v1h-1z M21,43h1v1h-1z M24,43h2v1h-2z M27,43h1v1h-1z M35,43h1v1h-1z M39,43h2v1h-2z M42,43h1v1h-1z M20,44h1v1h-1z M22,44h3v1h-3z M26,44h1v1h-1z M28,44h1v4h-1z M32,44h1v1h-1z M37,44h2v2h-2z M40,44h1v2h-1z M43,44h1v3h-1z M45,44h2v1h-2z M48,44h1v5h-1z M29,45h1v1h-1z M31,45h1v2h-1z M33,45h2v2h-2z M35,45h1v1h-1z M39,45h1v5h-1z M41,45h1v3h-1z M42,45h1v1h-1z M20,46h7v1h-7z M32,46h1v2h-1z M36,46h2v1h-2z M46,46h1v1h-1z M20,47h1v6h-1z M26,47h1v6h-1z M29,47h2v1h-2z M34,47h3v1h-3z M40,47h1v1h-1z M42,47h1v4h-1z M50,47h1v2h-1z M52,47h1v1h-1z M22,48h3v3h-3z M37,48h2v1h-2z M43,48h1v1h-1z M45,48h3v1h-3z M51,48h1v1h-1z M28,49h1v2h-1z M30,49h2v1h-2z M34,49h1v1h-1z M40,49h1v1h-1z M45,49h1v2h-1z M49,49h1v1h-1z M52,49h1v1h-1z M29,50h1v3h-1z M33,50h1v3h-1z M35,50h3v1h-3z M46,50h2v1h-2z M50,50h1v1h-1z M30,51h2v2h-2z M34,51h1v2h-1z M37,51h1v2h-1z M39,51h1v2h-1z M43,51h1v2h-1z M46,51h1v1h-1z M48,51h1v1h-1z M52,51h1v1h-1z M21,52h5v1h-5z M28,52h1v1h-1z M35,52h1v1h-1z M41,52h2v1h-2z M50,52h1v1h-1z" fill="#000000"/>
</svg>
