<?xml version="1.0" encoding="UTF-8"?>
<!DOCTYPE svg PUBLIC "-//W3C//DTD SVG 1.1//EN" "http://www.w3.org/Graphics/SVG/1.1/DTD/svg11.dtd">
<svg xmlns="http://www.w3.org/2000/svg" version="1.1" viewBox="0 0 81 81" stroke="none">
	<rect width="100%" height="100%" fill="#ffffff"/>
	<path d="M20,20h7v1h-7z M28,20h2v1h-2z M33,20h1v1h-1z M38,20h1v3h-1z M41,20h2v2h-2z M43,20h1v1h-1z M45,20h5v1h-5z M52,20h1v1h-1z M54,20h7v1h-7z M20,21h1v6h-1z M26,21h1v6h-1z M29,21h4v1h-4z M35,21h2v1h-2z M39,21h1v2h-1z M44,21h1v1h-1z M49,21h1v4h-1z M51,21h1v1h-1z M54,21h1v6h-1z M60,21h1v6h-1z M22,22h3v3h-3z M29,22h2v1h-2z M37,22h1v2h-1z M41,22h1v2h-1z M43,22h1v1h-1z M50,22h1v3h-1z M52,22h1v3h-1z M56,22h3v3h-3z M28,23h1v7h-1z M30,23h1v5h-1z M32,23h1v8h-1z M33,23h1v3h-1z M35,23h1v3h-1z M44,23h1v2h-1z M46,23h1v2h-1z M34,24h1v1h-1z M40,24h1v4h-1z M43,24h1v1h-1z M47,24h1v1h-1z M29,25h1v1h-1z M39,25h1v1h-1z M51,25h1v1h-1z M21,26h5v1h-5z M34,26h1v1h-1z M36,26h1v1h-1z M38,26h1v2h-1z M42,26h1v1h-1z M44,26h1v1h-1z M46,26h1v1h-1z M48,26h1v1h-1z M50,26h1v1h-1z M52,26h1v3h-1z M55,26h5v1h-5z M29,27h1v2h-1z M35,27h1v1h-1z M37,27h1v3h-1z M39,27h1v2h-1z M41,27h1v2h-1z M43,27h1v1h-1z M49,27h1v2h-1z M20,28h1v1h-1z M24,28h1v1h-1z M26,28h2v1h-2z M33,28h1v1h-1z M42,28h1v1h-1z M44,28h1v1h-1z M51,28h1v1h-1z M53,28h5v1h-5z M60,28h1v8h-1z M21,29h2v1h-2z M25,29h1v1h-1z M27,29h1v2h-1z M35,29h1v2h-1z M43,29h1v2h-1z M45,29h3v1h-3z M50,29h1v1h-1z M53,29h2v1h-2z M56,29h2v1h-2z M26,30h1v1h-1z M29,30h3v1h-3z M34,30h1v3h-1z M38,30h1v1h-1z M40,30h1v3h-1z M44,30h1v3h-1z M47,30h1v3h-1z M48,30h1v1h-1z M52,30h1v2h-1z M54,30h1v2h-1z M21,31h1v2h-1z M24,31h1v2h-1z M30,31h1v1h-1z M33,31h1v5h-1z M37,31h1v2h-1z M39,31h1v1h-1z M41,31h2v1h-2z M46,31h1v2h-1z M49,31h1v2h-1z M51,31h1v1h-1z M53,31h1v2h-1z M55,31h1v1h-1z M57,31h1v1h-1z M20,32h1v1h-1z M22,32h2v1h-2z M26,32h1v1h-1z M28,32h2v1h-2z M32,32h1v1h-1z M35,32h1v6h-1z M38,32h1v1h-1z M41,32h1v1h-1z M48,32h1v3h-1z M59,32h1v3h-1z M22,33h1v1h-1z M25,33h1v3h-1z M30,33h2v1h-2z M39,33h1v3h-1z M42,33h1v1h-1z M50,33h2v1h-2z M56,33h2v1h-2z M23,34h2v2h-2z M26,34h1v1h-1z M28,34h2v2h-2z M34,34h1v1h-1z M36,34h1v1h-1z M38,34h1v1h-1z M41,34h1v4h-1z M43,34h5v1h-5z M53,34h3v1h-3z M20,35h1v1h-1z M22,35h1v1h-1z M32,35h1v1h-1z M37,35h1v3h-1z M40,35h1v1h-1z M42,35h2v2h-2z M47,35h1v5h-1z M49,35h1v2h-1z M51,35h2v2h-2z M55,35h1v5h-1z M57,35h1v1h-1z M24,36h1v1h-1z M26,36h1v1h-1z M29,36h3v1h-3z M34,36h1v2h-1z M44,36h1v1h-1z M59,36h1v1h-1z M20,37h1v2h-1z M22,37h1v1h-1z M27,37h1v1h-1z M29,37h1v1h-1z M32,37h1v3h-1z M38,37h1v2h-1z M40,37h1v3h-1z M43,37h1v2h-1z M45,37h2v1h-2z M48,37h1v1h-1z M50,37h1v2h-1z M52,37h3v1h-3z M56,37h3v1h-3z M60,37h1v7h-1z M21,38h1v1h-1z M26,38h1v1h-1z M28,38h1v2h-1z M30,38h1v1h-1z M33,38h1v1h-1z M36,38h1v6h-1z M46,38h1v2h-1z M54,38h1v2h-1z M57,38h1v3h-1z M58,38h1v1h-1z M22,39h3v1h-3z M31,39h1v2h-1z M34,39h2v1h-2z M41,39h2v1h-2z M44,39h1v1h-1z M49,39h1v1h-1z M52,39h1v4h-1z M20,40h2v2h-2z M24,40h1v1h-1z M26,40h2v1h-2z M34,40h1v1h-1z M39,40h1v1h-1z M43,40h1v3h-1z M45,40h1v3h-1z M51,40h1v1h-1z M59,40h1v1h-1z M23,41h1v2h-1z M25,41h1v7h-1z M27,41h1v1h-1z M32,41h2v1h-2z M38,41h1v1h-1z M40,41h2v1h-2z M44,41h1v1h-1z M47,41h2v2h-2z M49,41h1v1h-1z M53,41h4v1h-4z M58,41h1v1h-1z M26,42h1v1h-1z M29,42h4v1h-4z M34,42h1v4h-1z M35,42h1v1h-1z M41,42h1v12h-1z M46,42h1v2h-1z M50,42h1v2h-1z M53,42h2v1h-2z M56,42h2v1h-2z M20,43h1v1h-1z M28,43h2v2h-2z M30,43h1v1h-1z M33,43h1v1h-1z M37,43h1v2h-1z M44,43h1v2h-1z M48,43h2v1h-2z M53,43h1v1h-1z M55,43h1v2h-1z M59,43h1v2h-1z M21,44h1v4h-1z M26,44h1v1h-1z M31,44h1v1h-1z M35,44h1v1h-1z M42,44h2v1h-2z M49,44h1v1h-1z M51,44h2v1h-2z M57,44h1v1h-1z M30,45h1v1h-1z M38,45h1v1h-1z M40,45h1v2h-1z M43,45h1v2h-1z M47,45h1v3h-1z M48,45h1v1h-1z M50,45h1v2h-1z M52,45h1v4h-1z M53,45h2v1h-2z M56,45h1v1h-1z M58,45h1v1h-1z M60,45h1v3h-1z M26,46h1v1h-1z M31,46h2v2h-2z M35,46h1v1h-1z M42,46h1v2h-1z M20,47h1v1h-1z M22,47h3v2h-3z M27,47h3v1h-3z M36,47h2v1h-2z M39,47h1v3h-1z M44,47h1v2h-1z M46,47h1v2h-1z M48,47h2v1h-2z M51,47h1v1h-1z M53,47h1v2h-1z M57,47h1v1h-1z M26,48h1v1h-1z M33,48h1v3h-1z M37,48h2v1h-2z M43,48h1v1h-1z M49,48h2v1h-2z M55,48h1v3h-1z M20,49h1v1h-1z M24,49h1v2h-1z M27,49h2v1h-2z M30,49h1v4h-1z M32,49h1v1h-1z M34,49h3v1h-3z M40,49h1v2h-1z M45,49h1v1h-1z M48,49h1v2h-1z M50,49h2v1h-2z M56,49h1v1h-1z M58,49h1v1h-1z M60,49h1v3h-1z M25,50h3v1h-3z M29,50h1v8h-1z M35,50h1v5h-1z M38,50h1v2h-1z M43,50h2v1h-2z M46,50h2v2h-2z M50,50h1v1h-1z M53,50h1v3h-1z M59,50h1v1h-1z M22,51h2v1h-2z M28,51h1v1h-1z M36,51h2v1h-2z M49,51h1v2h-1z M51,51h2v1h-2z M57,51h1v1h-1z M20,52h2v1h-2z M26,52h1v1h-1z M31,52h1v1h-1z M37,52h1v1h-1z M39,52h2v1h-2z M42,52h1v1h-1z M44,52h1v2h-1z M47,52h2v3h-2z M52,52h1v5h-1z M54,52h3v1h-3z M28,53h1v2h-1z M32,53h1v4h-1z M33,53h1v1h-1z M36,53h1v1h-1z M38,53h1v1h-1z M40,53h1v1h-1z M43,53h1v2h-1z M45,53h1v2h-1z M56,53h5v1h-5z M20,54h7v1h-7z M31,54h1v1h-1z M37,54h1v2h-1z M49,54h2v2h-2z M51,54h1v1h-1z M54,54h1v1h-1z M56,54h1v3h-1z M57,54h1v1h-1z M59,54h2v3h-2z M20,55h1v6h-1z M26,55h1v6h-1z M33,55h1v3h-1z M34,55h1v1h-1z M36,55h1v1h-1z M38,55h1v2h-1z M40,55h1v1h-1z M42,55h1v2h-1z M48,55h1v2h-1z M22,56h3v3h-3z M28,56h1v1h-1z M30,56h1v1h-1z M44,56h2v1h-2z M51,56h1v3h-1z M53,56h3v1h-3z M31,57h1v2h-1z M34,57h4v1h-4z M40,57h1v1h-1z M43,57h2v1h-2z M47,57h1v3h-1z M50,57h1v1h-1z M55,57h1v1h-1z M58,57h1v1h-1z M60,57h1v3h-1z M34,58h2v1h-2z M38,58h1v1h-1z M41,58h1v3h-1z M43,58h1v1h-1z M53,58h1v3h-1z M57,58h1v1h-1z M29,59h1v1h-1z M32,59h1v1h-1z M34,59h1v1h-1z M39,59h2v1h-2z M49,59h2v1h-2z M52,59h1v2h-1z M54,59h2v2h-2z M59,59h1v2h-1z M21,60h5v1h-5z M28,60h1v1h-1z M33,60h1v1h-1z M35,60h4v1h-4z M42,60h1v1h-1z M44,60h1v1h-1z M46,60h1v1h-1z M49,60h1v1h-1z M56,60h1v1h-1z" fill="#000000"/>
</svg>
